<svg width="923" height="872" viewBox="0 0 923 872" fill="none" xmlns="http://www.w3.org/2000/svg">
<path d="M244.003 762.323C244.808 753.782 248.682 739.109 251.464 729.5C256.112 713.444 261.254 701.669 269.873 684.09C248.629 671.923 196.165 649.58 156.264 657.543C152.198 684.647 195.813 729.844 244.003 762.323Z" fill="#322F2B"/>
<path d="M321.374 720.21C313.834 737.678 309.234 750.206 304.5 768C302.442 775.734 298.756 788.923 297.466 796.503C354.051 826.778 391.679 835.098 405.401 820.373C398.313 781.334 346.429 737.331 321.374 720.21Z" fill="#322F2B"/>
<path fill-rule="evenodd" clip-rule="evenodd" d="M560.724 374.49C536.945 431.278 565.945 415.673 572.58 395.369C578.645 398.324 583.524 400.397 587.389 401.74C587.866 399.278 572.579 379.324 564.876 369.655C562.769 370.884 561.32 372.872 560.724 374.49Z" fill="#322F2B"/>
<path d="M359.094 552.303C353.227 559.422 346.44 568.007 339.12 577.694L368.475 636.623C372.336 631.016 375.894 626.088 379.016 621.957L408.323 545.696C390.608 549.342 374.351 551.135 359.621 551.419L359.094 552.303Z" fill="#322F2B"/>
<path d="M430.087 628.549C434.584 610.197 444.817 588.36 460.96 566.479C456.864 557.036 454.127 545.65 452.783 532.708L408.323 545.696L430.087 628.549Z" fill="#322F2B"/>
<path d="M595.837 634.209C577.187 585.493 545.259 603.957 528.582 619.609C451.393 705.082 417.209 681.111 430.087 628.549L408.323 545.696L379.016 621.957C346.731 753.149 462.941 766.398 603.623 748.006C866.319 713.663 756.189 491.129 674.531 602.142C658.253 562.688 600.845 605.037 595.837 634.209Z" fill="#CFCDBC"/>
<path d="M359.029 650.798C319.812 650.738 317.034 618.993 320.547 603.128C304.007 626.556 292.097 642.665 277.16 669.81C277.861 688.841 290.485 720.449 327.583 706.397C340.135 680.263 346.669 669.939 359.029 650.798Z" fill="#CFCDBC"/>
<path d="M327.583 706.397C290.485 720.449 277.861 688.841 277.16 669.81C275.626 672.597 278.636 667.023 277.16 669.81C274.634 674.58 272.199 679.346 269.873 684.09C261.254 701.669 256.112 713.444 251.464 729.5C248.682 739.109 244.808 753.782 244.003 762.323L297.466 796.503C298.756 788.923 302.442 775.734 304.5 768C309.234 750.206 313.834 737.678 321.374 720.21C323.381 715.561 325.456 710.952 327.583 706.397C328.431 704.58 326.719 708.195 327.583 706.397Z" fill="#CFCDBC"/>
<path d="M368.475 636.623L339.12 577.694C333.208 585.517 326.949 594.06 320.547 603.128C317.034 618.993 319.812 650.738 359.029 650.798C362.319 645.704 365.488 640.961 368.475 636.623Z" fill="#CFCDBC"/>
<path d="M460.259 585.957C447.518 609.572 428.055 665.336 445.759 664.457C484.259 664.457 508.757 618.437 541.259 598.957C569.077 586.049 583.759 597.978 595.837 609.957C604.588 595.867 632.53 578.118 655.759 576.457L654.259 564.957C635.713 581.701 610.098 592.017 560.759 571.957C550.759 590.957 501.759 630.957 460.259 585.957Z" fill="#322F2B"/>
<path d="M655.219 316.902C646.378 202.572 560.875 135.691 519.23 116.541C496.021 128.842 497.418 181.455 518.651 226L569 221.5L552 274.253C611.933 345.697 644.238 344.905 655.219 316.902Z" fill="#322F2B"/>
<path d="M534.231 364.161C487.512 211.687 408.427 155.581 374.725 146.586C351.015 159.689 354.956 217.271 376.22 270.5L427 275.5L405.068 324.5C476.43 435.611 524.932 418.696 534.231 364.161Z" fill="#322F2B"/>
<path fill-rule="evenodd" clip-rule="evenodd" d="M691.048 350.033C737.335 122.963 587.841 55.0941 507.309 49.543C486.678 38.9904 472.702 42.478 463.749 51.3168L460.734 51.2229C436.832 51.9796 384.021 57.139 363.998 71.723C345.216 68.6333 332.948 76.9012 325.238 90.0259C213.178 145.566 31.9643 358.531 271.611 470.041L272.117 469.847C239.31 502.765 273.158 553.088 359.621 551.419C374.351 551.135 390.608 549.342 408.323 545.696L452.783 532.708C454.127 545.65 456.864 557.036 460.96 566.479C469.033 585.091 482.39 596.161 500.78 596.733C522.981 597.424 544.849 582.619 557.635 558.984C586.259 575.457 646.372 595.581 662.561 519.229C727.227 553.758 741.63 460.66 727.114 396.678C718.49 368.396 707.166 362.541 689.864 355.915L691.048 350.033ZM572.58 395.369C565.945 415.673 536.945 431.278 560.724 374.49C561.32 372.872 562.769 370.884 564.876 369.655C566.633 368.63 568.848 368.133 571.406 368.82C578.96 370.847 620.573 413.264 587.389 401.74C583.524 400.397 578.645 398.324 572.58 395.369ZM405.068 324.5C476.43 435.611 524.932 418.696 534.231 364.161C534.331 363.579 534.429 363.002 534.527 362.429C540.162 329.478 543.454 310.225 501.877 240.094C434.898 141.962 394.92 135.426 374.725 146.586C351.015 159.689 354.956 217.271 376.22 270.5L427 275.5L405.068 324.5ZM655.219 316.902C644.238 344.905 611.933 345.697 552 274.253L569 221.5L518.651 226C497.418 181.455 496.021 128.842 519.23 116.541C538.733 106.204 579.122 120.94 632.699 199.645C656.449 236.92 665.877 289.726 655.219 316.902Z" fill="#CFCDBC"/>
<path d="M501.877 240.094C434.898 141.962 394.92 135.426 374.725 146.586C408.427 155.581 487.512 211.687 534.231 364.161C534.331 363.579 534.429 363.002 534.527 362.429C540.162 329.478 543.454 310.225 501.877 240.094Z" fill="#FEFCED"/>
<path d="M632.699 199.645C579.122 120.94 538.733 106.204 519.23 116.541C560.875 135.691 646.378 202.572 655.219 316.902C665.877 289.726 656.449 236.92 632.699 199.645Z" fill="#FEFCED"/>
<path d="M571.406 368.82C568.848 368.133 566.633 368.63 564.876 369.655C572.579 379.324 587.866 399.278 587.389 401.74C620.573 413.264 578.96 370.847 571.406 368.82Z" fill="#FEFCED"/>
<path d="M409.46 814.497C418.548 795.77 401.489 765.225 327.583 706.397C325.456 710.952 323.381 715.561 321.374 720.21C346.429 737.331 398.313 781.334 405.401 820.373C407.103 818.546 408.457 816.563 409.46 814.497Z" fill="#FEFCED"/>
<path d="M277.16 669.81C199.369 639.98 166.162 637.869 158.876 650.12C157.52 652.401 156.663 654.885 156.264 657.543C196.165 649.58 248.629 671.923 269.873 684.09C272.199 679.346 274.634 674.58 277.16 669.81Z" fill="#FEFCED"/>
<path d="M314.021 152.207C312.844 132.934 315.101 107.282 325.238 90.0259M399.096 86.8224C385.428 78.0621 373.822 73.3391 363.998 71.723M450.836 79.9289C452.211 70.0642 456.188 58.7819 463.749 51.3168M545.899 79.3865C531.01 64.6467 518.228 55.1282 507.309 49.543M507.309 49.543C587.841 55.0941 737.335 122.963 691.048 350.033L689.864 355.915M507.309 49.543C486.678 38.9904 472.702 42.478 463.749 51.3168M363.998 71.723C384.021 57.139 436.832 51.9796 460.734 51.2229L463.749 51.3168M363.998 71.723C345.216 68.6333 332.948 76.9012 325.238 90.0259M325.238 90.0259C213.178 145.566 31.9643 358.531 271.611 470.041L272.117 469.847M210.33 349.576C228.095 330.619 266.956 307.818 280.282 368.261M359.518 442.263C315.727 443.512 287.033 454.88 272.117 469.847M272.117 469.847C239.31 502.765 273.158 553.088 359.621 551.419M452.354 497.178C451.509 509.96 451.659 521.879 452.783 532.708M561.673 472.567C573.803 505.57 569.89 536.332 557.635 558.984M557.635 558.984C544.849 582.619 522.981 597.424 500.78 596.733C482.39 596.161 469.033 585.091 460.96 566.479M557.635 558.984C586.259 575.457 646.372 595.581 662.561 519.229M664.415 434.246C668.067 470.895 666.941 498.573 662.561 519.229M662.561 519.229C727.227 553.758 741.63 460.66 727.114 396.678C718.49 368.396 707.166 362.541 689.864 355.915M679.476 352.174C684.411 354.329 686.404 354.589 689.864 355.915M460.96 566.479C444.817 588.36 434.584 610.197 430.087 628.549M460.96 566.479C456.864 557.036 454.127 545.65 452.783 532.708M600.222 648.352C598.916 643.109 597.445 638.41 595.837 634.209M595.837 634.209C577.187 585.493 545.259 603.957 528.582 619.609C451.393 705.082 417.209 681.111 430.087 628.549M595.837 634.209C600.845 605.037 658.253 562.688 674.531 602.142M678.791 631.288C679.004 618.662 677.411 609.122 674.531 602.142M408.323 545.696L379.016 621.957M408.323 545.696L430.087 628.549M408.323 545.696C390.608 549.342 374.351 551.135 359.621 551.419M408.323 545.696L452.783 532.708M674.531 602.142C756.189 491.129 866.319 713.663 603.623 748.006C462.941 766.398 346.731 753.149 379.016 621.957M244.003 762.323L297.466 796.503M244.003 762.323C195.813 729.844 152.198 684.647 156.264 657.543M244.003 762.323C244.808 753.782 248.682 739.109 251.464 729.5M379.016 621.957C375.894 626.088 372.336 631.016 368.475 636.623M297.466 796.503C354.051 826.778 391.679 835.098 405.401 820.373M297.466 796.503C298.756 788.923 302.442 775.734 304.5 768M339.12 577.694C346.44 568.007 353.227 559.422 359.094 552.303L359.621 551.419M339.12 577.694L368.475 636.623M339.12 577.694C333.208 585.517 326.949 594.06 320.547 603.128M368.475 636.623C365.488 640.961 362.319 645.704 359.029 650.798M320.547 603.128C317.034 618.993 319.812 650.738 359.029 650.798M320.547 603.128C304.007 626.556 292.097 642.665 277.16 669.81M359.029 650.798C346.669 669.939 340.135 680.263 327.583 706.397M277.16 669.81C277.861 688.841 290.485 720.449 327.583 706.397M277.16 669.81C275.626 672.597 278.636 667.023 277.16 669.81ZM277.16 669.81C199.369 639.98 166.162 637.869 158.876 650.12C157.52 652.401 156.663 654.885 156.264 657.543M277.16 669.81C274.634 674.58 272.199 679.346 269.873 684.09M327.583 706.397C326.719 708.195 328.431 704.58 327.583 706.397ZM327.583 706.397C401.489 765.225 418.548 795.77 409.46 814.497C408.457 816.563 407.103 818.546 405.401 820.373M327.583 706.397C325.456 710.952 323.381 715.561 321.374 720.21M269.873 684.09C248.629 671.923 196.165 649.58 156.264 657.543M269.873 684.09C261.254 701.669 256.112 713.444 251.464 729.5M321.374 720.21C346.429 737.331 398.313 781.334 405.401 820.373M321.374 720.21C313.834 737.678 309.234 750.206 304.5 768M564.876 369.655C562.769 370.884 561.32 372.872 560.724 374.49C536.945 431.278 565.945 415.673 572.58 395.369C578.645 398.324 583.524 400.397 587.389 401.74M564.876 369.655C566.633 368.63 568.848 368.133 571.406 368.82C578.96 370.847 620.573 413.264 587.389 401.74M564.876 369.655C572.579 379.324 587.866 399.278 587.389 401.74M374.725 146.586C394.92 135.426 434.898 141.962 501.877 240.094C543.454 310.225 540.162 329.478 534.527 362.429C534.429 363.002 534.331 363.579 534.231 364.161M374.725 146.586C408.427 155.581 487.512 211.687 534.231 364.161M374.725 146.586C351.015 159.689 354.956 217.271 376.22 270.5L427 275.5L405.068 324.5C476.43 435.611 524.932 418.696 534.231 364.161M519.23 116.541C538.733 106.204 579.122 120.94 632.699 199.645C656.449 236.92 665.877 289.726 655.219 316.902M519.23 116.541C560.875 135.691 646.378 202.572 655.219 316.902M519.23 116.541C496.021 128.842 497.418 181.455 518.651 226L569 221.5L552 274.253C611.933 345.697 644.238 344.905 655.219 316.902M251.464 729.5C254.15 746.059 268.518 776.941 304.5 768M460.259 585.957C447.518 609.572 428.055 665.336 445.759 664.457C484.259 664.457 508.757 618.437 541.259 598.957C569.077 586.049 583.759 597.978 595.837 609.957C604.588 595.867 632.53 578.118 655.759 576.457L654.259 564.957C635.713 581.701 610.098 592.017 560.759 571.957C550.759 590.957 501.759 630.957 460.259 585.957Z" stroke="#322F2B" stroke-width="7" stroke-linecap="round" stroke-linejoin="round"/>
</svg>
